<svg width="962" height="564" viewBox="0 0 962 564" fill="none" xmlns="http://www.w3.org/2000/svg">
<path d="M28.9388 258H45.9308L77.1788 176.928H181.579L212.683 258H229.675L136.651 20.4H121.963L28.9388 258ZM82.5068 162.96L129.307 40.848L176.251 162.96H82.5068ZM359.318 262.608C373.238 262.608 385.718 259.248 396.758 252.528C407.894 245.808 416.678 236.544 423.11 224.736C429.638 212.928 432.902 199.44 432.902 184.272C432.902 169.2 429.686 155.76 423.254 143.952C416.822 132.144 408.038 122.88 396.902 116.16C385.766 109.344 373.19 105.936 359.174 105.936C345.35 105.936 332.87 109.344 321.734 116.16C310.598 122.976 302.006 132.384 295.958 144.384V10.32H280.694V258H295.958V223.872C302.198 235.968 310.886 245.472 322.022 252.384C333.158 259.2 345.59 262.608 359.318 262.608ZM356.294 249.072C344.39 249.072 333.83 246.336 324.614 240.864C315.398 235.296 308.15 227.616 302.87 217.824C297.686 208.032 295.094 196.848 295.094 184.272C295.094 171.6 297.686 160.416 302.87 150.72C308.15 140.928 315.398 133.296 324.614 127.824C333.83 122.256 344.39 119.472 356.294 119.472C368.102 119.472 378.614 122.256 387.83 127.824C397.046 133.392 404.246 141.072 409.43 150.864C414.71 160.56 417.35 171.696 417.35 184.272C417.35 196.848 414.71 208.032 409.43 217.824C404.246 227.52 397.046 235.152 387.83 240.72C378.614 246.288 368.102 249.072 356.294 249.072ZM556.683 262.608C571.851 262.608 585.483 259.296 597.579 252.672C609.771 246.048 619.419 236.88 626.523 225.168C633.627 213.36 637.179 199.728 637.179 184.272C637.179 168.816 633.627 155.232 626.523 143.52C619.419 131.712 609.771 122.496 597.579 115.872C585.483 109.248 571.851 105.936 556.683 105.936C541.515 105.936 527.835 109.248 515.643 115.872C503.547 122.496 493.947 131.712 486.843 143.52C479.835 155.232 476.331 168.816 476.331 184.272C476.331 199.728 479.835 213.36 486.843 225.168C493.947 236.88 503.547 246.048 515.643 252.672C527.835 259.296 541.515 262.608 556.683 262.608ZM556.683 248.64C544.203 248.64 533.067 245.904 523.275 240.432C513.579 234.864 505.899 227.232 500.235 217.536C494.667 207.84 491.883 196.752 491.883 184.272C491.883 171.792 494.667 160.704 500.235 151.008C505.899 141.312 513.579 133.728 523.275 128.256C533.067 122.688 544.203 119.904 556.683 119.904C569.259 119.904 580.395 122.688 590.091 128.256C599.883 133.728 607.563 141.312 613.131 151.008C618.699 160.704 621.483 171.792 621.483 184.272C621.483 196.752 618.699 207.84 613.131 217.536C607.563 227.232 599.883 234.864 590.091 240.432C580.395 245.904 569.259 248.64 556.683 248.64ZM747.204 262.608C768.42 262.608 783.54 257.664 792.564 247.776C801.588 237.792 806.1 221.088 806.1 197.664V110.544H790.836V195.504C790.836 214.896 787.476 228.768 780.756 237.12C774.132 245.376 762.948 249.504 747.204 249.504C731.46 249.504 720.228 245.376 713.508 237.12C706.788 228.768 703.428 214.896 703.428 195.504V110.544H688.164V197.664C688.164 221.088 692.676 237.792 701.7 247.776C710.724 257.664 725.892 262.608 747.204 262.608ZM899.939 262.608C908.675 262.608 916.067 260.592 922.115 256.56L918.227 244.32C913.907 247.584 908.771 249.216 902.819 249.216C889.859 249.216 883.379 240.144 883.379 222V122.064H921.107V110.544H883.379V55.536H868.115V110.544H854.147V122.064H868.115V222.72C868.115 235.392 870.851 245.232 876.323 252.24C881.891 259.152 889.763 262.608 899.939 262.608Z" fill="white"/>
<path d="M660.704 563.608C681.92 563.608 697.04 558.664 706.064 548.776C715.088 538.792 719.6 522.088 719.6 498.664V411.544H704.336V496.504C704.336 515.896 700.976 529.768 694.256 538.12C687.632 546.376 676.448 550.504 660.704 550.504C644.96 550.504 633.728 546.376 627.008 538.12C620.288 529.768 616.928 515.896 616.928 496.504V411.544H601.664V498.664C601.664 522.088 606.176 538.792 615.2 548.776C624.224 558.664 639.392 563.608 660.704 563.608ZM817.896 563.608C827.88 563.608 836.76 561.688 844.536 557.848C852.408 553.912 858.552 548.392 862.968 541.288C867.48 534.184 869.736 525.784 869.736 516.088C869.736 507.448 867.912 500.632 864.264 495.64C860.712 490.552 855.624 486.376 849 483.112C842.472 479.848 834.744 476.536 825.816 473.176C819.576 470.776 813.816 468.376 808.536 465.976C803.352 463.576 799.224 460.696 796.152 457.336C793.08 453.88 791.544 449.464 791.544 444.088C791.544 436.6 794.28 430.504 799.752 425.8C805.224 421.096 812.328 418.744 821.064 418.744C835.08 418.744 846.072 424.984 854.04 437.464L862.392 429.256C857.4 422.152 851.352 416.68 844.248 412.84C837.144 408.904 829.416 406.936 821.064 406.936C812.616 406.936 805.08 408.568 798.456 411.832C791.832 415.096 786.6 419.608 782.76 425.368C779.016 431.032 777.144 437.464 777.144 444.664C777.144 452.152 779.064 458.344 782.904 463.24C786.84 468.04 791.784 472.024 797.736 475.192C803.784 478.264 809.976 481.048 816.312 483.544C824.568 486.712 831.528 489.592 837.192 492.184C842.952 494.68 847.32 497.752 850.296 501.4C853.272 505.048 854.76 510.088 854.76 516.52C854.76 527.272 851.064 535.768 843.672 542.008C836.376 548.248 827.736 551.368 817.752 551.368C808.152 551.368 799.56 548.584 791.976 543.016C784.392 537.352 778.488 529.432 774.264 519.256L765.048 526.888C769.848 538.6 776.808 547.672 785.928 554.104C795.144 560.44 805.8 563.608 817.896 563.608Z" fill="white"/>
</svg>
