<svg width="962" height="564" viewBox="0 0 962 564" fill="none" xmlns="http://www.w3.org/2000/svg">
<path d="M28.9388 258H45.9308L77.1788 176.928H181.579L212.683 258H229.675L136.651 20.4H121.963L28.9388 258ZM82.5068 162.96L129.307 40.848L176.251 162.96H82.5068ZM359.318 262.608C373.238 262.608 385.718 259.248 396.758 252.528C407.894 245.808 416.678 236.544 423.11 224.736C429.638 212.928 432.902 199.44 432.902 184.272C432.902 169.2 429.686 155.76 423.254 143.952C416.822 132.144 408.038 122.88 396.902 116.16C385.766 109.344 373.19 105.936 359.174 105.936C345.35 105.936 332.87 109.344 321.734 116.16C310.598 122.976 302.006 132.384 295.958 144.384V10.32H280.694V258H295.958V223.872C302.198 235.968 310.886 245.472 322.022 252.384C333.158 259.2 345.59 262.608 359.318 262.608ZM356.294 249.072C344.39 249.072 333.83 246.336 324.614 240.864C315.398 235.296 308.15 227.616 302.87 217.824C297.686 208.032 295.094 196.848 295.094 184.272C295.094 171.6 297.686 160.416 302.87 150.72C308.15 140.928 315.398 133.296 324.614 127.824C333.83 122.256 344.39 119.472 356.294 119.472C368.102 119.472 378.614 122.256 387.83 127.824C397.046 133.392 404.246 141.072 409.43 150.864C414.71 160.56 417.35 171.696 417.35 184.272C417.35 196.848 414.71 208.032 409.43 217.824C404.246 227.52 397.046 235.152 387.83 240.72C378.614 246.288 368.102 249.072 356.294 249.072ZM556.683 262.608C571.851 262.608 585.483 259.296 597.579 252.672C609.771 246.048 619.419 236.88 626.523 225.168C633.627 213.36 637.179 199.728 637.179 184.272C637.179 168.816 633.627 155.232 626.523 143.52C619.419 131.712 609.771 122.496 597.579 115.872C585.483 109.248 571.851 105.936 556.683 105.936C541.515 105.936 527.835 109.248 515.643 115.872C503.547 122.496 493.947 131.712 486.843 143.52C479.835 155.232 476.331 168.816 476.331 184.272C476.331 199.728 479.835 213.36 486.843 225.168C493.947 236.88 503.547 246.048 515.643 252.672C527.835 259.296 541.515 262.608 556.683 262.608ZM556.683 248.64C544.203 248.64 533.067 245.904 523.275 240.432C513.579 234.864 505.899 227.232 500.235 217.536C494.667 207.84 491.883 196.752 491.883 184.272C491.883 171.792 494.667 160.704 500.235 151.008C505.899 141.312 513.579 133.728 523.275 128.256C533.067 122.688 544.203 119.904 556.683 119.904C569.259 119.904 580.395 122.688 590.091 128.256C599.883 133.728 607.563 141.312 613.131 151.008C618.699 160.704 621.483 171.792 621.483 184.272C621.483 196.752 618.699 207.84 613.131 217.536C607.563 227.232 599.883 234.864 590.091 240.432C580.395 245.904 569.259 248.64 556.683 248.64ZM747.204 262.608C768.42 262.608 783.54 257.664 792.564 247.776C801.588 237.792 806.1 221.088 806.1 197.664V110.544H790.836V195.504C790.836 214.896 787.476 228.768 780.756 237.12C774.132 245.376 762.948 249.504 747.204 249.504C731.46 249.504 720.228 245.376 713.508 237.12C706.788 228.768 703.428 214.896 703.428 195.504V110.544H688.164V197.664C688.164 221.088 692.676 237.792 701.7 247.776C710.724 257.664 725.892 262.608 747.204 262.608ZM899.939 262.608C908.675 262.608 916.067 260.592 922.115 256.56L918.227 244.32C913.907 247.584 908.771 249.216 902.819 249.216C889.859 249.216 883.379 240.144 883.379 222V122.064H921.107V110.544H883.379V55.536H868.115V110.544H854.147V122.064H868.115V222.72C868.115 235.392 870.851 245.232 876.323 252.24C881.891 259.152 889.763 262.608 899.939 262.608Z" fill="#265498"/>
<path d="M689.36 563.608C742.832 563.608 769.568 533.656 769.568 473.752V321.4H753.872V471.016C753.872 522.376 732.368 548.056 689.36 548.056C646.256 548.056 624.704 522.376 624.704 471.016V321.4H609.008V473.752C609.008 533.656 635.792 563.608 689.36 563.608ZM876.115 563.608C886.099 563.608 894.979 561.688 902.755 557.848C910.627 553.912 916.771 548.392 921.187 541.288C925.699 534.184 927.955 525.784 927.955 516.088C927.955 507.448 926.131 500.632 922.483 495.64C918.931 490.552 913.843 486.376 907.219 483.112C900.691 479.848 892.963 476.536 884.035 473.176C877.795 470.776 872.035 468.376 866.755 465.976C861.571 463.576 857.443 460.696 854.371 457.336C851.299 453.88 849.763 449.464 849.763 444.088C849.763 436.6 852.499 430.504 857.971 425.8C863.443 421.096 870.547 418.744 879.282 418.744C893.299 418.744 904.291 424.984 912.259 437.464L920.611 429.256C915.619 422.152 909.571 416.68 902.467 412.84C895.363 408.904 887.635 406.936 879.282 406.936C870.835 406.936 863.299 408.568 856.675 411.832C850.051 415.096 844.819 419.608 840.979 425.368C837.235 431.032 835.363 437.464 835.363 444.664C835.363 452.152 837.283 458.344 841.123 463.24C845.059 468.04 850.003 472.024 855.955 475.192C862.003 478.264 868.195 481.048 874.531 483.544C882.787 486.712 889.747 489.592 895.411 492.184C901.171 494.68 905.539 497.752 908.515 501.4C911.491 505.048 912.979 510.088 912.979 516.52C912.979 527.272 909.283 535.768 901.891 542.008C894.595 548.248 885.955 551.368 875.971 551.368C866.371 551.368 857.779 548.584 850.195 543.016C842.611 537.352 836.707 529.432 832.483 519.256L823.267 526.888C828.067 538.6 835.027 547.672 844.147 554.104C853.363 560.44 864.019 563.608 876.115 563.608Z" fill="#265498"/>
</svg>
