<svg width="735" height="260" viewBox="0 0 735 260" fill="none" xmlns="http://www.w3.org/2000/svg">
<path d="M129.694 114.92C135.974 114.92 141.814 114 147.214 112.16C152.654 110.32 157.434 107.84 161.554 104.72L157.234 97.1C153.714 99.94 149.634 102.12 144.994 103.64C140.354 105.16 135.434 105.92 130.234 105.92C123.954 105.92 118.194 104.84 112.954 102.68C107.754 100.52 103.234 97.52 99.3944 93.68C95.5544 89.8 92.5744 85.3 90.4544 80.18C88.3744 75.02 87.3344 69.48 87.3344 63.56C87.3344 57.6 88.3744 52.06 90.4544 46.94C92.5744 41.82 95.5544 37.34 99.3944 33.5C103.234 29.62 107.754 26.6 112.954 24.44C118.194 22.28 123.954 21.2 130.234 21.2C135.434 21.2 140.354 21.96 144.994 23.48C149.634 25 153.714 27.18 157.234 30.02L161.554 22.4C157.394 19.24 152.594 16.76 147.154 14.96C141.714 13.12 135.894 12.2 129.694 12.2C122.254 12.2 115.354 13.5 108.994 16.1C102.674 18.7 97.1344 22.34 92.3744 27.02C87.6544 31.66 83.9744 37.1 81.3344 43.34C78.6944 49.58 77.3744 56.32 77.3744 63.56C77.3744 70.8 78.6944 77.54 81.3344 83.78C83.9744 90.02 87.6544 95.48 92.3744 100.16C97.0944 104.8 102.634 108.42 108.994 111.02C115.354 113.62 122.254 114.92 129.694 114.92Z" fill="#265498"/>
<path d="M120.672 248H129.456L229.104 10.4H216.432L124.992 231.296L33.696 10.4H21.024L120.672 248Z" fill="#265498"/>
<path d="M276.117 208.852L276.398 212.578L276.68 208.852L299.039 130.172H308.391L278.719 231H273.938L244.406 130.172H253.828L276.117 208.852ZM366.5 207.516H334.578L327.969 231H318.547L348.078 130.172H352.86L382.532 231H373.18L366.5 207.516ZM337.039 198.867H364.11L350.821 152.391L350.539 148.664L350.258 152.391L337.039 198.867ZM455.055 207.656C455.055 211.078 454.352 214.289 452.945 217.289C451.586 220.289 449.734 222.914 447.391 225.164C445.094 227.414 442.398 229.195 439.305 230.508C436.258 231.773 433.023 232.406 429.602 232.406H422.359C418.937 232.406 415.68 231.773 412.586 230.508C409.539 229.195 406.844 227.414 404.5 225.164C402.203 222.914 400.352 220.289 398.945 217.289C397.586 214.289 396.906 211.078 396.906 207.656V203.648L405.977 202.172V207.656C405.977 209.906 406.422 212.016 407.312 213.984C408.25 215.906 409.492 217.617 411.039 219.117C412.586 220.57 414.367 221.719 416.383 222.562C418.445 223.406 420.602 223.828 422.852 223.828H429.18C431.43 223.828 433.562 223.406 435.578 222.562C437.594 221.719 439.375 220.57 440.922 219.117C442.469 217.617 443.687 215.906 444.578 213.984C445.516 212.016 445.984 209.906 445.984 207.656V204.633C445.984 201.164 445.305 198.281 443.945 195.984C442.586 193.688 440.781 191.742 438.531 190.148C436.281 188.508 433.727 187.125 430.867 186C428.055 184.875 425.148 183.75 422.148 182.625C419.148 181.5 416.219 180.258 413.359 178.898C410.547 177.539 408.016 175.852 405.766 173.836C403.516 171.773 401.711 169.266 400.352 166.312C398.992 163.359 398.312 159.727 398.312 155.414V153.516C398.312 150.094 398.945 146.883 400.211 143.883C401.523 140.883 403.305 138.258 405.555 136.008C407.805 133.758 410.43 132 413.43 130.734C416.477 129.422 419.711 128.766 423.133 128.766H429.602C433.023 128.766 436.234 129.422 439.234 130.734C442.234 132 444.859 133.758 447.109 136.008C449.359 138.258 451.117 140.883 452.383 143.883C453.695 146.883 454.352 150.094 454.352 153.516V156.117L445.281 157.594V153.516C445.281 151.266 444.859 149.18 444.016 147.258C443.172 145.289 442.023 143.578 440.57 142.125C439.117 140.672 437.406 139.523 435.437 138.68C433.516 137.836 431.43 137.414 429.18 137.414H423.555C421.305 137.414 419.195 137.836 417.227 138.68C415.305 139.523 413.594 140.672 412.094 142.125C410.641 143.578 409.492 145.289 408.648 147.258C407.805 149.18 407.383 151.266 407.383 153.516V155.414C407.383 158.648 408.062 161.367 409.422 163.57C410.781 165.773 412.586 167.672 414.836 169.266C417.086 170.812 419.617 172.172 422.43 173.344C425.289 174.469 428.219 175.641 431.219 176.859C434.219 178.031 437.125 179.344 439.937 180.797C442.797 182.203 445.352 183.961 447.602 186.07C449.852 188.133 451.656 190.664 453.016 193.664C454.375 196.664 455.055 200.32 455.055 204.633V207.656ZM503.39 138.82V231H494.32V138.82H470.273V130.172H527.437V138.82H503.39Z" fill="#265498"/>
<path d="M303.797 98.6562C303.797 102.078 303.141 105.289 301.828 108.289C300.562 111.289 298.805 113.914 296.555 116.164C294.305 118.414 291.68 120.195 288.68 121.508C285.68 122.773 282.469 123.406 279.047 123.406H271.875C268.453 123.406 265.219 122.773 262.172 121.508C259.172 120.195 256.547 118.414 254.297 116.164C252.047 113.914 250.266 111.289 248.953 108.289C247.688 105.289 247.055 102.078 247.055 98.6562V44.5156C247.055 41.0937 247.688 37.8828 248.953 34.8828C250.266 31.8828 252.047 29.2578 254.297 27.0078C256.547 24.7578 259.172 23 262.172 21.7344C265.219 20.4219 268.453 19.7656 271.875 19.7656H279.047C282.469 19.7656 285.68 20.4219 288.68 21.7344C291.68 23 294.305 24.7578 296.555 27.0078C298.805 29.2578 300.562 31.8828 301.828 34.8828C303.141 37.8828 303.797 41.0937 303.797 44.5156V48.5938L294.727 50V44.5156C294.727 42.2656 294.305 40.1797 293.461 38.2578C292.617 36.2891 291.469 34.5781 290.016 33.125C288.562 31.6719 286.852 30.5234 284.883 29.6797C282.961 28.8359 280.875 28.4141 278.625 28.4141H272.297C270.047 28.4141 267.938 28.8359 265.969 29.6797C264.047 30.5234 262.336 31.6719 260.836 33.125C259.383 34.5781 258.234 36.2891 257.391 38.2578C256.547 40.1797 256.125 42.2656 256.125 44.5156V98.6562C256.125 100.906 256.547 103.016 257.391 104.984C258.234 106.906 259.383 108.617 260.836 110.117C262.336 111.57 264.047 112.719 265.969 113.562C267.938 114.406 270.047 114.828 272.297 114.828H278.625C280.875 114.828 282.961 114.406 284.883 113.562C286.852 112.719 288.562 111.57 290.016 110.117C291.469 108.617 292.617 106.906 293.461 104.984C294.305 103.016 294.727 100.906 294.727 98.6562V93.1719L303.797 94.6484V98.6562ZM366.339 98.5156H334.417L327.808 122H318.386L347.917 21.1719H352.698L382.37 122H373.019L366.339 98.5156ZM336.878 89.8672H363.948L350.659 43.3906L350.378 39.6641L350.097 43.3906L336.878 89.8672ZM455.037 98.6562C455.037 102.078 454.334 105.289 452.928 108.289C451.569 111.289 449.717 113.914 447.373 116.164C445.076 118.414 442.381 120.195 439.287 121.508C436.24 122.773 433.006 123.406 429.584 123.406H422.342C418.92 123.406 415.662 122.773 412.569 121.508C409.522 120.195 406.826 118.414 404.483 116.164C402.186 113.914 400.334 111.289 398.928 108.289C397.569 105.289 396.889 102.078 396.889 98.6562V94.6484L405.959 93.1719V98.6562C405.959 100.906 406.405 103.016 407.295 104.984C408.233 106.906 409.475 108.617 411.022 110.117C412.569 111.57 414.35 112.719 416.365 113.562C418.428 114.406 420.584 114.828 422.834 114.828H429.162C431.412 114.828 433.545 114.406 435.561 113.562C437.576 112.719 439.358 111.57 440.905 110.117C442.451 108.617 443.67 106.906 444.561 104.984C445.498 103.016 445.967 100.906 445.967 98.6562V95.6328C445.967 92.1641 445.287 89.2812 443.928 86.9844C442.569 84.6875 440.764 82.7422 438.514 81.1484C436.264 79.5078 433.709 78.125 430.85 77C428.037 75.875 425.131 74.75 422.131 73.625C419.131 72.5 416.201 71.2578 413.342 69.8984C410.53 68.5391 407.998 66.8516 405.748 64.8359C403.498 62.7734 401.694 60.2656 400.334 57.3125C398.975 54.3594 398.295 50.7266 398.295 46.4141V44.5156C398.295 41.0937 398.928 37.8828 400.194 34.8828C401.506 31.8828 403.287 29.2578 405.537 27.0078C407.787 24.7578 410.412 23 413.412 21.7344C416.459 20.4219 419.694 19.7656 423.115 19.7656H429.584C433.006 19.7656 436.217 20.4219 439.217 21.7344C442.217 23 444.842 24.7578 447.092 27.0078C449.342 29.2578 451.1 31.8828 452.365 34.8828C453.678 37.8828 454.334 41.0937 454.334 44.5156V47.1172L445.264 48.5938V44.5156C445.264 42.2656 444.842 40.1797 443.998 38.2578C443.155 36.2891 442.006 34.5781 440.553 33.125C439.1 31.6719 437.389 30.5234 435.42 29.6797C433.498 28.8359 431.412 28.4141 429.162 28.4141H423.537C421.287 28.4141 419.178 28.8359 417.209 29.6797C415.287 30.5234 413.576 31.6719 412.076 33.125C410.623 34.5781 409.475 36.2891 408.631 38.2578C407.787 40.1797 407.365 42.2656 407.365 44.5156V46.4141C407.365 49.6484 408.045 52.3672 409.405 54.5703C410.764 56.7734 412.569 58.6719 414.819 60.2656C417.069 61.8125 419.6 63.1719 422.412 64.3438C425.272 65.4688 428.201 66.6406 431.201 67.8594C434.201 69.0312 437.108 70.3438 439.92 71.7969C442.78 73.2031 445.334 74.9609 447.584 77.0703C449.834 79.1328 451.639 81.6641 452.998 84.6641C454.358 87.6641 455.037 91.3203 455.037 95.6328V98.6562ZM503.517 29.8203V122H494.447V29.8203H470.4V21.1719H527.564V29.8203H503.517ZM545.036 122V21.1719H554.106V113.352H592.708V122H545.036ZM611.586 122V21.1719H668.328V29.8203H620.656V67.2969H659.258V75.9453H620.656V113.352H668.328V122H611.586Z" fill="#265498"/>
</svg>
