<svg width="735" height="265" viewBox="0 0 735 265" fill="none" xmlns="http://www.w3.org/2000/svg">
<path d="M129.849 119.92C136.129 119.92 141.969 119 147.369 117.16C152.809 115.32 157.589 112.84 161.709 109.72L157.389 102.1C153.869 104.94 149.789 107.12 145.149 108.64C140.509 110.16 135.589 110.92 130.389 110.92C124.109 110.92 118.349 109.84 113.109 107.68C107.909 105.52 103.389 102.52 99.5486 98.68C95.7086 94.8 92.7286 90.3 90.6086 85.18C88.5286 80.02 87.4886 74.48 87.4886 68.56C87.4886 62.6 88.5286 57.06 90.6086 51.94C92.7286 46.82 95.7086 42.34 99.5486 38.5C103.389 34.62 107.909 31.6 113.109 29.44C118.349 27.28 124.109 26.2 130.389 26.2C135.589 26.2 140.509 26.96 145.149 28.48C149.789 30 153.869 32.18 157.389 35.02L161.709 27.4C157.549 24.24 152.749 21.76 147.309 19.96C141.869 18.12 136.049 17.2 129.849 17.2C122.409 17.2 115.509 18.5 109.149 21.1C102.829 23.7 97.2886 27.34 92.5286 32.02C87.8086 36.66 84.1286 42.1 81.4886 48.34C78.8486 54.58 77.5286 61.32 77.5286 68.56C77.5286 75.8 78.8486 82.54 81.4886 88.78C84.1286 95.02 87.8086 100.48 92.5286 105.16C97.2486 109.8 102.789 113.42 109.149 116.02C115.509 118.62 122.409 119.92 129.849 119.92Z" fill="white"/>
<path d="M120.672 248H129.456L229.104 10.4H216.432L124.992 231.296L33.696 10.4H21.024L120.672 248Z" fill="white"/>
<path d="M276.117 213.852L276.398 217.578L276.68 213.852L299.039 135.172H308.391L278.719 236H273.938L244.406 135.172H253.828L276.117 213.852ZM366.5 212.516H334.578L327.969 236H318.547L348.078 135.172H352.86L382.532 236H373.18L366.5 212.516ZM337.039 203.867H364.11L350.821 157.391L350.539 153.664L350.258 157.391L337.039 203.867ZM455.055 212.656C455.055 216.078 454.352 219.289 452.945 222.289C451.586 225.289 449.734 227.914 447.391 230.164C445.094 232.414 442.398 234.195 439.305 235.508C436.258 236.773 433.023 237.406 429.602 237.406H422.359C418.937 237.406 415.68 236.773 412.586 235.508C409.539 234.195 406.844 232.414 404.5 230.164C402.203 227.914 400.352 225.289 398.945 222.289C397.586 219.289 396.906 216.078 396.906 212.656V208.648L405.977 207.172V212.656C405.977 214.906 406.422 217.016 407.312 218.984C408.25 220.906 409.492 222.617 411.039 224.117C412.586 225.57 414.367 226.719 416.383 227.562C418.445 228.406 420.602 228.828 422.852 228.828H429.18C431.43 228.828 433.562 228.406 435.578 227.562C437.594 226.719 439.375 225.57 440.922 224.117C442.469 222.617 443.687 220.906 444.578 218.984C445.516 217.016 445.984 214.906 445.984 212.656V209.633C445.984 206.164 445.305 203.281 443.945 200.984C442.586 198.688 440.781 196.742 438.531 195.148C436.281 193.508 433.727 192.125 430.867 191C428.055 189.875 425.148 188.75 422.148 187.625C419.148 186.5 416.219 185.258 413.359 183.898C410.547 182.539 408.016 180.852 405.766 178.836C403.516 176.773 401.711 174.266 400.352 171.312C398.992 168.359 398.312 164.727 398.312 160.414V158.516C398.312 155.094 398.945 151.883 400.211 148.883C401.523 145.883 403.305 143.258 405.555 141.008C407.805 138.758 410.43 137 413.43 135.734C416.477 134.422 419.711 133.766 423.133 133.766H429.602C433.023 133.766 436.234 134.422 439.234 135.734C442.234 137 444.859 138.758 447.109 141.008C449.359 143.258 451.117 145.883 452.383 148.883C453.695 151.883 454.352 155.094 454.352 158.516V161.117L445.281 162.594V158.516C445.281 156.266 444.859 154.18 444.016 152.258C443.172 150.289 442.023 148.578 440.57 147.125C439.117 145.672 437.406 144.523 435.437 143.68C433.516 142.836 431.43 142.414 429.18 142.414H423.555C421.305 142.414 419.195 142.836 417.227 143.68C415.305 144.523 413.594 145.672 412.094 147.125C410.641 148.578 409.492 150.289 408.648 152.258C407.805 154.18 407.383 156.266 407.383 158.516V160.414C407.383 163.648 408.062 166.367 409.422 168.57C410.781 170.773 412.586 172.672 414.836 174.266C417.086 175.812 419.617 177.172 422.43 178.344C425.289 179.469 428.219 180.641 431.219 181.859C434.219 183.031 437.125 184.344 439.937 185.797C442.797 187.203 445.352 188.961 447.602 191.07C449.852 193.133 451.656 195.664 453.016 198.664C454.375 201.664 455.055 205.32 455.055 209.633V212.656ZM503.39 143.82V236H494.32V143.82H470.273V135.172H527.437V143.82H503.39Z" fill="white"/>
<path d="M303.797 103.656C303.797 107.078 303.141 110.289 301.828 113.289C300.562 116.289 298.805 118.914 296.555 121.164C294.305 123.414 291.68 125.195 288.68 126.508C285.68 127.773 282.469 128.406 279.047 128.406H271.875C268.453 128.406 265.219 127.773 262.172 126.508C259.172 125.195 256.547 123.414 254.297 121.164C252.047 118.914 250.266 116.289 248.953 113.289C247.688 110.289 247.055 107.078 247.055 103.656V49.5156C247.055 46.0937 247.688 42.8828 248.953 39.8828C250.266 36.8828 252.047 34.2578 254.297 32.0078C256.547 29.7578 259.172 28 262.172 26.7344C265.219 25.4219 268.453 24.7656 271.875 24.7656H279.047C282.469 24.7656 285.68 25.4219 288.68 26.7344C291.68 28 294.305 29.7578 296.555 32.0078C298.805 34.2578 300.562 36.8828 301.828 39.8828C303.141 42.8828 303.797 46.0937 303.797 49.5156V53.5938L294.727 55V49.5156C294.727 47.2656 294.305 45.1797 293.461 43.2578C292.617 41.2891 291.469 39.5781 290.016 38.125C288.562 36.6719 286.852 35.5234 284.883 34.6797C282.961 33.8359 280.875 33.4141 278.625 33.4141H272.297C270.047 33.4141 267.938 33.8359 265.969 34.6797C264.047 35.5234 262.336 36.6719 260.836 38.125C259.383 39.5781 258.234 41.2891 257.391 43.2578C256.547 45.1797 256.125 47.2656 256.125 49.5156V103.656C256.125 105.906 256.547 108.016 257.391 109.984C258.234 111.906 259.383 113.617 260.836 115.117C262.336 116.57 264.047 117.719 265.969 118.562C267.938 119.406 270.047 119.828 272.297 119.828H278.625C280.875 119.828 282.961 119.406 284.883 118.562C286.852 117.719 288.562 116.57 290.016 115.117C291.469 113.617 292.617 111.906 293.461 109.984C294.305 108.016 294.727 105.906 294.727 103.656V98.1719L303.797 99.6484V103.656ZM366.339 103.516H334.417L327.808 127H318.386L347.917 26.1719H352.698L382.37 127H373.019L366.339 103.516ZM336.878 94.8672H363.948L350.659 48.3906L350.378 44.6641L350.097 48.3906L336.878 94.8672ZM455.037 103.656C455.037 107.078 454.334 110.289 452.928 113.289C451.569 116.289 449.717 118.914 447.373 121.164C445.076 123.414 442.381 125.195 439.287 126.508C436.24 127.773 433.006 128.406 429.584 128.406H422.342C418.92 128.406 415.662 127.773 412.569 126.508C409.522 125.195 406.826 123.414 404.483 121.164C402.186 118.914 400.334 116.289 398.928 113.289C397.569 110.289 396.889 107.078 396.889 103.656V99.6484L405.959 98.1719V103.656C405.959 105.906 406.405 108.016 407.295 109.984C408.233 111.906 409.475 113.617 411.022 115.117C412.569 116.57 414.35 117.719 416.365 118.562C418.428 119.406 420.584 119.828 422.834 119.828H429.162C431.412 119.828 433.545 119.406 435.561 118.562C437.576 117.719 439.358 116.57 440.905 115.117C442.451 113.617 443.67 111.906 444.561 109.984C445.498 108.016 445.967 105.906 445.967 103.656V100.633C445.967 97.1641 445.287 94.2812 443.928 91.9844C442.569 89.6875 440.764 87.7422 438.514 86.1484C436.264 84.5078 433.709 83.125 430.85 82C428.037 80.875 425.131 79.75 422.131 78.625C419.131 77.5 416.201 76.2578 413.342 74.8984C410.53 73.5391 407.998 71.8516 405.748 69.8359C403.498 67.7734 401.694 65.2656 400.334 62.3125C398.975 59.3594 398.295 55.7266 398.295 51.4141V49.5156C398.295 46.0937 398.928 42.8828 400.194 39.8828C401.506 36.8828 403.287 34.2578 405.537 32.0078C407.787 29.7578 410.412 28 413.412 26.7344C416.459 25.4219 419.694 24.7656 423.115 24.7656H429.584C433.006 24.7656 436.217 25.4219 439.217 26.7344C442.217 28 444.842 29.7578 447.092 32.0078C449.342 34.2578 451.1 36.8828 452.365 39.8828C453.678 42.8828 454.334 46.0937 454.334 49.5156V52.1172L445.264 53.5938V49.5156C445.264 47.2656 444.842 45.1797 443.998 43.2578C443.155 41.2891 442.006 39.5781 440.553 38.125C439.1 36.6719 437.389 35.5234 435.42 34.6797C433.498 33.8359 431.412 33.4141 429.162 33.4141H423.537C421.287 33.4141 419.178 33.8359 417.209 34.6797C415.287 35.5234 413.576 36.6719 412.076 38.125C410.623 39.5781 409.475 41.2891 408.631 43.2578C407.787 45.1797 407.365 47.2656 407.365 49.5156V51.4141C407.365 54.6484 408.045 57.3672 409.405 59.5703C410.764 61.7734 412.569 63.6719 414.819 65.2656C417.069 66.8125 419.6 68.1719 422.412 69.3438C425.272 70.4688 428.201 71.6406 431.201 72.8594C434.201 74.0312 437.108 75.3438 439.92 76.7969C442.78 78.2031 445.334 79.9609 447.584 82.0703C449.834 84.1328 451.639 86.6641 452.998 89.6641C454.358 92.6641 455.037 96.3203 455.037 100.633V103.656ZM503.517 34.8203V127H494.447V34.8203H470.4V26.1719H527.564V34.8203H503.517ZM545.036 127V26.1719H554.106V118.352H592.708V127H545.036ZM611.586 127V26.1719H668.328V34.8203H620.656V72.2969H659.258V80.9453H620.656V118.352H668.328V127H611.586Z" fill="white"/>
</svg>
