<svg width="1219" height="343" viewBox="0 0 1219 343" fill="none" xmlns="http://www.w3.org/2000/svg">
<path d="M50.3356 258H66.0316V155.04H107.216C122.768 155.04 136.112 152.112 147.248 146.256C158.384 140.4 166.928 132.336 172.88 122.064C178.928 111.696 181.952 99.792 181.952 86.352C181.952 66 175.328 49.92 162.08 38.112C148.832 26.304 130.544 20.4 107.216 20.4H50.3356V258ZM66.0316 141.36V33.36H104.336C123.536 33.36 138.656 38.16 149.696 47.76C160.736 57.264 166.256 70.224 166.256 86.64C166.256 102.864 160.736 116.064 149.696 126.24C138.656 136.32 123.536 141.36 104.336 141.36H66.0316ZM230.428 258H245.692V156.912C245.692 150.48 247.66 144.432 251.596 138.768C255.532 133.008 260.62 128.352 266.86 124.8C273.196 121.152 279.82 119.328 286.732 119.328C290.092 119.328 293.548 119.664 297.1 120.336C300.652 121.008 303.772 122.016 306.46 123.36L312.652 110.4C305.74 107.424 297.916 105.936 289.18 105.936C269.02 105.936 254.524 114.816 245.692 132.576V110.544H230.428V258ZM422.886 262.608C438.054 262.608 451.686 259.296 463.782 252.672C475.974 246.048 485.622 236.88 492.726 225.168C499.83 213.36 503.382 199.728 503.382 184.272C503.382 168.816 499.83 155.232 492.726 143.52C485.622 131.712 475.974 122.496 463.782 115.872C451.686 109.248 438.054 105.936 422.886 105.936C407.718 105.936 394.038 109.248 381.846 115.872C369.75 122.496 360.15 131.712 353.046 143.52C346.038 155.232 342.534 168.816 342.534 184.272C342.534 199.728 346.038 213.36 353.046 225.168C360.15 236.88 369.75 246.048 381.846 252.672C394.038 259.296 407.718 262.608 422.886 262.608ZM422.886 248.64C410.406 248.64 399.27 245.904 389.478 240.432C379.782 234.864 372.102 227.232 366.438 217.536C360.87 207.84 358.086 196.752 358.086 184.272C358.086 171.792 360.87 160.704 366.438 151.008C372.102 141.312 379.782 133.728 389.478 128.256C399.27 122.688 410.406 119.904 422.886 119.904C435.462 119.904 446.598 122.688 456.294 128.256C466.086 133.728 473.766 141.312 479.334 151.008C484.902 160.704 487.686 171.792 487.686 184.272C487.686 196.752 484.902 207.84 479.334 217.536C473.766 227.232 466.086 234.864 456.294 240.432C446.598 245.904 435.462 248.64 422.886 248.64ZM564.735 81.024C567.711 81.024 570.255 80.016 572.367 78C574.479 75.888 575.535 73.344 575.535 70.368C575.535 67.392 574.479 64.848 572.367 62.736C570.255 60.624 567.711 59.568 564.735 59.568C561.759 59.568 559.215 60.624 557.103 62.736C554.991 64.848 553.935 67.392 553.935 70.368C553.935 73.344 554.991 75.888 557.103 78C559.215 80.016 561.759 81.024 564.735 81.024ZM535.215 337.2C559.983 337.2 572.367 322.224 572.367 292.272V110.544H557.103V291.84C557.103 313.152 548.991 323.808 532.767 323.808C525.567 323.808 519.759 321.888 515.343 318.048L510.879 330.144C513.855 332.544 517.455 334.32 521.679 335.472C525.903 336.624 530.415 337.2 535.215 337.2ZM705.522 262.608C720.018 262.608 733.17 259.488 744.978 253.248C756.882 247.008 766.338 238.224 773.346 226.896L761.826 220.416C755.778 229.728 747.954 236.928 738.354 242.016C728.754 247.104 717.954 249.648 705.954 249.648C693.378 249.648 682.146 246.912 672.258 241.44C662.466 235.872 654.786 228.24 649.218 218.544C643.65 208.848 640.866 197.808 640.866 185.424H778.674C778.77 184.368 778.818 183.504 778.818 182.832C778.818 182.16 778.818 181.344 778.818 180.384C778.146 165.888 774.354 153.072 767.442 141.936C760.626 130.704 751.554 121.92 740.226 115.584C728.994 109.152 716.418 105.936 702.498 105.936C688.578 105.936 675.81 109.44 664.194 116.448C652.578 123.456 643.266 132.96 636.258 144.96C629.346 156.864 625.89 170.256 625.89 185.136C625.89 199.728 629.298 212.88 636.114 224.592C642.93 236.304 652.338 245.568 664.338 252.384C676.338 259.2 690.066 262.608 705.522 262.608ZM641.586 173.328C642.834 162.864 646.29 153.552 651.954 145.392C657.618 137.136 664.866 130.656 673.698 125.952C682.53 121.248 692.226 118.896 702.786 118.896C713.25 118.896 722.85 121.296 731.586 126.096C740.322 130.8 747.522 137.232 753.186 145.392C758.85 153.552 762.306 162.864 763.554 173.328H641.586ZM899.015 262.608C908.807 262.608 918.023 261.12 926.663 258.144C935.303 255.168 942.935 251.088 949.559 245.904L942.359 235.536C931.127 244.752 917.207 249.36 900.599 249.36C887.735 249.36 876.359 246.528 866.471 240.864C856.583 235.2 848.855 227.472 843.287 217.68C837.719 207.792 834.935 196.656 834.935 184.272C834.935 171.888 837.719 160.8 843.287 151.008C848.855 141.12 856.535 133.344 866.327 127.68C876.215 122.016 887.543 119.184 900.311 119.184C916.823 119.184 930.935 123.792 942.647 133.008L949.559 122.64C943.127 117.456 935.495 113.376 926.663 110.4C917.927 107.424 908.711 105.936 899.015 105.936C884.039 105.936 870.551 109.344 858.551 116.16C846.647 122.88 837.191 132.144 830.183 143.952C823.175 155.76 819.671 169.2 819.671 184.272C819.671 199.344 823.175 212.784 830.183 224.592C837.287 236.4 846.839 245.712 858.839 252.528C870.839 259.248 884.231 262.608 899.015 262.608ZM1029.67 262.608C1038.41 262.608 1045.8 260.592 1051.85 256.56L1047.96 244.32C1043.64 247.584 1038.5 249.216 1032.55 249.216C1019.59 249.216 1013.11 240.144 1013.11 222V122.064H1050.84V110.544H1013.11V55.536H997.849V110.544H983.881V122.064H997.849V222.72C997.849 235.392 1000.58 245.232 1006.06 252.24C1011.62 259.152 1019.5 262.608 1029.67 262.608ZM1137.07 262.608C1147.05 262.608 1155.93 260.688 1163.71 256.848C1171.58 252.912 1177.72 247.392 1182.14 240.288C1186.65 233.184 1188.91 224.784 1188.91 215.088C1188.91 206.448 1187.08 199.632 1183.44 194.64C1179.88 189.552 1174.8 185.376 1168.17 182.112C1161.64 178.848 1153.92 175.536 1144.99 172.176C1138.75 169.776 1132.99 167.376 1127.71 164.976C1122.52 162.576 1118.4 159.696 1115.32 156.336C1112.25 152.88 1110.72 148.464 1110.72 143.088C1110.72 135.6 1113.45 129.504 1118.92 124.8C1124.4 120.096 1131.5 117.744 1140.24 117.744C1154.25 117.744 1165.24 123.984 1173.21 136.464L1181.56 128.256C1176.57 121.152 1170.52 115.68 1163.42 111.84C1156.32 107.904 1148.59 105.936 1140.24 105.936C1131.79 105.936 1124.25 107.568 1117.63 110.832C1111 114.096 1105.77 118.608 1101.93 124.368C1098.19 130.032 1096.32 136.464 1096.32 143.664C1096.32 151.152 1098.24 157.344 1102.08 162.24C1106.01 167.04 1110.96 171.024 1116.91 174.192C1122.96 177.264 1129.15 180.048 1135.48 182.544C1143.74 185.712 1150.7 188.592 1156.36 191.184C1162.12 193.68 1166.49 196.752 1169.47 200.4C1172.44 204.048 1173.93 209.088 1173.93 215.52C1173.93 226.272 1170.24 234.768 1162.84 241.008C1155.55 247.248 1146.91 250.368 1136.92 250.368C1127.32 250.368 1118.73 247.584 1111.15 242.016C1103.56 236.352 1097.66 228.432 1093.44 218.256L1084.22 225.888C1089.02 237.6 1095.98 246.672 1105.1 253.104C1114.32 259.44 1124.97 262.608 1137.07 262.608Z" fill="white"/>
</svg>
