<svg width="1139" height="318" viewBox="0 0 1139 318" fill="none" xmlns="http://www.w3.org/2000/svg">
<path d="M0.335625 238H16.0316V135.04H57.2156C72.7676 135.04 86.1116 132.112 97.2476 126.256C108.384 120.4 116.928 112.336 122.88 102.064C128.928 91.696 131.952 79.792 131.952 66.352C131.952 46 125.328 29.92 112.08 18.112C98.8316 6.30399 80.5436 0.399986 57.2156 0.399986H0.335625V238ZM16.0316 121.36V13.36H54.3356C73.5356 13.36 88.6556 18.16 99.6956 27.76C110.736 37.264 116.256 50.224 116.256 66.64C116.256 82.864 110.736 96.064 99.6956 106.24C88.6556 116.32 73.5356 121.36 54.3356 121.36H16.0316ZM180.428 238H195.692V136.912C195.692 130.48 197.66 124.432 201.596 118.768C205.532 113.008 210.62 108.352 216.86 104.8C223.196 101.152 229.82 99.328 236.732 99.328C240.092 99.328 243.548 99.664 247.1 100.336C250.652 101.008 253.772 102.016 256.46 103.36L262.652 90.4C255.74 87.424 247.916 85.936 239.18 85.936C219.02 85.936 204.524 94.816 195.692 112.576V90.544H180.428V238ZM372.886 242.608C388.054 242.608 401.686 239.296 413.782 232.672C425.974 226.048 435.622 216.88 442.726 205.168C449.83 193.36 453.382 179.728 453.382 164.272C453.382 148.816 449.83 135.232 442.726 123.52C435.622 111.712 425.974 102.496 413.782 95.872C401.686 89.248 388.054 85.936 372.886 85.936C357.718 85.936 344.038 89.248 331.846 95.872C319.75 102.496 310.15 111.712 303.046 123.52C296.038 135.232 292.534 148.816 292.534 164.272C292.534 179.728 296.038 193.36 303.046 205.168C310.15 216.88 319.75 226.048 331.846 232.672C344.038 239.296 357.718 242.608 372.886 242.608ZM372.886 228.64C360.406 228.64 349.27 225.904 339.478 220.432C329.782 214.864 322.102 207.232 316.438 197.536C310.87 187.84 308.086 176.752 308.086 164.272C308.086 151.792 310.87 140.704 316.438 131.008C322.102 121.312 329.782 113.728 339.478 108.256C349.27 102.688 360.406 99.904 372.886 99.904C385.462 99.904 396.598 102.688 406.294 108.256C416.086 113.728 423.766 121.312 429.334 131.008C434.902 140.704 437.686 151.792 437.686 164.272C437.686 176.752 434.902 187.84 429.334 197.536C423.766 207.232 416.086 214.864 406.294 220.432C396.598 225.904 385.462 228.64 372.886 228.64ZM514.735 61.024C517.711 61.024 520.255 60.016 522.367 58C524.479 55.888 525.535 53.344 525.535 50.368C525.535 47.392 524.479 44.848 522.367 42.736C520.255 40.624 517.711 39.568 514.735 39.568C511.759 39.568 509.215 40.624 507.103 42.736C504.991 44.848 503.935 47.392 503.935 50.368C503.935 53.344 504.991 55.888 507.103 58C509.215 60.016 511.759 61.024 514.735 61.024ZM485.215 317.2C509.983 317.2 522.367 302.224 522.367 272.272V90.544H507.103V271.84C507.103 293.152 498.991 303.808 482.767 303.808C475.567 303.808 469.759 301.888 465.343 298.048L460.879 310.144C463.855 312.544 467.455 314.32 471.679 315.472C475.903 316.624 480.415 317.2 485.215 317.2ZM655.522 242.608C670.018 242.608 683.17 239.488 694.978 233.248C706.882 227.008 716.338 218.224 723.346 206.896L711.826 200.416C705.778 209.728 697.954 216.928 688.354 222.016C678.754 227.104 667.954 229.648 655.954 229.648C643.378 229.648 632.146 226.912 622.258 221.44C612.466 215.872 604.786 208.24 599.218 198.544C593.65 188.848 590.866 177.808 590.866 165.424H728.674C728.77 164.368 728.818 163.504 728.818 162.832C728.818 162.16 728.818 161.344 728.818 160.384C728.146 145.888 724.354 133.072 717.442 121.936C710.626 110.704 701.554 101.92 690.226 95.584C678.994 89.152 666.418 85.936 652.498 85.936C638.578 85.936 625.81 89.44 614.194 96.448C602.578 103.456 593.266 112.96 586.258 124.96C579.346 136.864 575.89 150.256 575.89 165.136C575.89 179.728 579.298 192.88 586.114 204.592C592.93 216.304 602.338 225.568 614.338 232.384C626.338 239.2 640.066 242.608 655.522 242.608ZM591.586 153.328C592.834 142.864 596.29 133.552 601.954 125.392C607.618 117.136 614.866 110.656 623.698 105.952C632.53 101.248 642.226 98.896 652.786 98.896C663.25 98.896 672.85 101.296 681.586 106.096C690.322 110.8 697.522 117.232 703.186 125.392C708.85 133.552 712.306 142.864 713.554 153.328H591.586ZM849.015 242.608C858.807 242.608 868.023 241.12 876.663 238.144C885.303 235.168 892.935 231.088 899.559 225.904L892.359 215.536C881.127 224.752 867.207 229.36 850.599 229.36C837.735 229.36 826.359 226.528 816.471 220.864C806.583 215.2 798.855 207.472 793.287 197.68C787.719 187.792 784.935 176.656 784.935 164.272C784.935 151.888 787.719 140.8 793.287 131.008C798.855 121.12 806.535 113.344 816.327 107.68C826.215 102.016 837.543 99.184 850.311 99.184C866.823 99.184 880.935 103.792 892.647 113.008L899.559 102.64C893.127 97.456 885.495 93.376 876.663 90.4C867.927 87.424 858.711 85.936 849.015 85.936C834.039 85.936 820.551 89.344 808.551 96.16C796.647 102.88 787.191 112.144 780.183 123.952C773.175 135.76 769.671 149.2 769.671 164.272C769.671 179.344 773.175 192.784 780.183 204.592C787.287 216.4 796.839 225.712 808.839 232.528C820.839 239.248 834.231 242.608 849.015 242.608ZM979.673 242.608C988.409 242.608 995.801 240.592 1001.85 236.56L997.961 224.32C993.641 227.584 988.505 229.216 982.553 229.216C969.593 229.216 963.113 220.144 963.113 202V102.064H1000.84V90.544H963.113V35.536H947.849V90.544H933.881V102.064H947.849V202.72C947.849 215.392 950.585 225.232 956.057 232.24C961.625 239.152 969.497 242.608 979.673 242.608ZM1087.07 242.608C1097.05 242.608 1105.93 240.688 1113.71 236.848C1121.58 232.912 1127.72 227.392 1132.14 220.288C1136.65 213.184 1138.91 204.784 1138.91 195.088C1138.91 186.448 1137.08 179.632 1133.44 174.64C1129.88 169.552 1124.8 165.376 1118.17 162.112C1111.64 158.848 1103.92 155.536 1094.99 152.176C1088.75 149.776 1082.99 147.376 1077.71 144.976C1072.52 142.576 1068.4 139.696 1065.32 136.336C1062.25 132.88 1060.72 128.464 1060.72 123.088C1060.72 115.6 1063.45 109.504 1068.92 104.8C1074.4 100.096 1081.5 97.744 1090.24 97.744C1104.25 97.744 1115.24 103.984 1123.21 116.464L1131.56 108.256C1126.57 101.152 1120.52 95.68 1113.42 91.84C1106.32 87.904 1098.59 85.936 1090.24 85.936C1081.79 85.936 1074.25 87.568 1067.63 90.832C1061 94.096 1055.77 98.608 1051.93 104.368C1048.19 110.032 1046.32 116.464 1046.32 123.664C1046.32 131.152 1048.24 137.344 1052.08 142.24C1056.01 147.04 1060.96 151.024 1066.91 154.192C1072.96 157.264 1079.15 160.048 1085.48 162.544C1093.74 165.712 1100.7 168.592 1106.36 171.184C1112.12 173.68 1116.49 176.752 1119.47 180.4C1122.44 184.048 1123.93 189.088 1123.93 195.52C1123.93 206.272 1120.24 214.768 1112.84 221.008C1105.55 227.248 1096.91 230.368 1086.92 230.368C1077.32 230.368 1068.73 227.584 1061.15 222.016C1053.56 216.352 1047.66 208.432 1043.44 198.256L1034.22 205.888C1039.02 217.6 1045.98 226.672 1055.1 233.104C1064.32 239.44 1074.97 242.608 1087.07 242.608Z" fill="#265498"/>
</svg>
